<svg xmlns="http://www.w3.org/2000/svg" viewBox="0 0 106 106.02"><defs><style>.cls-1{fill:#09c;}.cls-2{fill:#cdd5d8;}.cls-3{fill:#e5e8ec;}.cls-4{fill:#989ea0;}.cls-5{fill:#f7f8fc;}.cls-6{fill:#b7bec0;}.cls-7{fill:#ff876c;}.cls-8{fill:#30363d;}.cls-9{fill:#596273;}.cls-10{fill:#fff;}.cls-11{fill:#dce4e7;}.cls-12{fill:#ec8558;}</style></defs><title>Asset 1</title><g id="Layer_2" data-name="Layer 2"><g id="Layer_4" data-name="Layer 4"><path class="cls-1" d="M53,104.35c-29.22,0-53-23.41-53-52.17S23.78,0,53,0s53,23.41,53,52.17S82.22,104.35,53,104.35Z"/><polygon class="cls-2" points="23.37 77.98 20.69 75.57 23.37 52.78 36.5 31.34 73.12 31.34 73.12 44.9 73.12 62.79 73.12 77.98 23.37 77.98"/><polygon class="cls-3" points="23.37 77.98 20.69 75.57 67.98 73.3 73.12 77.98 23.37 77.98"/><polygon class="cls-4" points="73.12 42.59 73.12 31.33 70.44 28.92 70.44 40.18 73.12 42.59"/><polygon class="cls-5" points="20.69 75.57 20.69 60.37 20.69 28.92 33.82 28.92 70.44 28.92 70.44 42.48 70.44 60.37 70.44 75.57 20.69 75.57"/><rect class="cls-6" x="20.69" y="28.92" width="49.76" height="11.26"/><path class="cls-4" d="M30.71,35.67A2.28,2.28,0,1,0,33,33.39,2.28,2.28,0,0,0,30.71,35.67Z"/><path class="cls-3" d="M32.72,34.55H32a1.34,1.34,0,0,1-1.34-1.34V28.65A1.34,1.34,0,0,1,32,27.31h.74A1.33,1.33,0,0,1,34,28.52h2.16a3.49,3.49,0,0,0-3.47-3.35H30.3a3.49,3.49,0,0,0-3.48,3.48v4.56A3.49,3.49,0,0,0,30.3,36.7h2.42a1.07,1.07,0,0,0,0-2.15Z"/><path class="cls-2" d="M32.81,25.17a3.48,3.48,0,0,0-3.4,3.47v4.56a3.48,3.48,0,0,0,3.37,3.47,1.07,1.07,0,0,0-.06-2.13H32a1.34,1.34,0,0,1-1.34-1.34V28.65A1.34,1.34,0,0,1,32,27.31h.74A1.33,1.33,0,0,1,34,28.52h2.16A3.48,3.48,0,0,0,32.81,25.17Z"/><circle class="cls-4" cx="58.46" cy="35.67" r="2.28"/><path class="cls-3" d="M58.2,34.55h-.74a1.34,1.34,0,0,1-1.34-1.34V28.65a1.34,1.34,0,0,1,1.34-1.34h.74a1.33,1.33,0,0,1,1.31,1.21h2.16a3.48,3.48,0,0,0-3.47-3.35H55.78a3.49,3.49,0,0,0-3.49,3.48v4.56a3.49,3.49,0,0,0,3.49,3.49H58.2a1.07,1.07,0,0,0,0-2.15Z"/><path class="cls-2" d="M58.28,25.17a3.48,3.48,0,0,0-3.4,3.47v4.56a3.48,3.48,0,0,0,3.37,3.47,1.07,1.07,0,0,0-.06-2.13h-.74a1.34,1.34,0,0,1-1.34-1.34V28.65a1.34,1.34,0,0,1,1.34-1.34h.74a1.33,1.33,0,0,1,1.31,1.21h2.16A3.48,3.48,0,0,0,58.28,25.17Z"/><rect class="cls-3" x="23.57" y="44.62" width="4.86" height="4.18"/><rect class="cls-3" x="29.92" y="44.62" width="4.86" height="4.18"/><rect class="cls-2" x="36.26" y="44.62" width="4.86" height="4.18"/><rect class="cls-2" x="42.6" y="44.62" width="4.86" height="4.18"/><rect class="cls-2" x="48.95" y="44.62" width="4.86" height="4.18"/><rect class="cls-2" x="55.29" y="44.62" width="4.86" height="4.18"/><rect class="cls-2" x="61.63" y="44.62" width="4.86" height="4.18"/><rect class="cls-2" x="23.57" y="50.32" width="4.86" height="4.18"/><rect class="cls-2" x="29.92" y="50.32" width="4.86" height="4.18"/><rect class="cls-2" x="36.26" y="50.32" width="4.86" height="4.18"/><rect class="cls-2" x="42.6" y="50.32" width="4.86" height="4.18"/><rect class="cls-2" x="48.95" y="50.32" width="4.86" height="4.18"/><rect class="cls-2" x="55.29" y="50.32" width="4.86" height="4.18"/><rect class="cls-2" x="61.63" y="50.32" width="4.86" height="4.18"/><rect class="cls-2" x="23.57" y="56.01" width="4.86" height="4.18"/><rect class="cls-2" x="29.92" y="56.01" width="4.86" height="4.18"/><rect class="cls-2" x="36.26" y="56.01" width="4.86" height="4.18"/><rect class="cls-7" x="42.6" y="56.01" width="4.86" height="4.18"/><rect class="cls-2" x="48.95" y="56.01" width="4.86" height="4.18"/><rect class="cls-2" x="55.29" y="56.01" width="4.86" height="4.18"/><rect class="cls-2" x="61.63" y="56.01" width="4.86" height="4.18"/><rect class="cls-7" x="23.57" y="61.71" width="4.86" height="4.18"/><rect class="cls-2" x="29.92" y="61.71" width="4.86" height="4.18"/><rect class="cls-2" x="36.26" y="61.71" width="4.86" height="4.18"/><rect class="cls-2" x="42.6" y="61.71" width="4.86" height="4.18"/><rect class="cls-2" x="48.95" y="61.71" width="4.86" height="4.18"/><rect class="cls-2" x="55.29" y="61.71" width="4.86" height="4.18"/><rect class="cls-2" x="61.63" y="61.71" width="4.86" height="4.18"/><rect class="cls-2" x="23.57" y="67.4" width="4.86" height="4.18"/><rect class="cls-2" x="29.92" y="67.4" width="4.86" height="4.18"/><rect class="cls-2" x="36.26" y="67.4" width="4.86" height="4.18"/><rect class="cls-2" x="42.6" y="67.4" width="4.86" height="4.18"/><rect class="cls-3" x="48.95" y="67.4" width="4.86" height="4.18"/><rect class="cls-3" x="55.29" y="67.4" width="4.86" height="4.18"/><rect class="cls-3" x="61.63" y="67.4" width="4.86" height="4.18"/><path class="cls-8" d="M70.27,105.32a1.69,1.69,0,0,1-2.36.38h0a1.69,1.69,0,0,1-.37-2.36l2.82-3.88a1.69,1.69,0,0,1,2.36-.38h0a1.69,1.69,0,0,1,.37,2.36Z"/><path class="cls-8" d="M94,105.32a1.69,1.69,0,0,0,2.36.38h0a1.69,1.69,0,0,0,.37-2.36L93.9,99.46a1.69,1.69,0,0,0-2.35-.38h0a1.69,1.69,0,0,0-.37,2.36Z"/><rect class="cls-8" x="68.16" y="57.6" width="3.43" height="7.38" transform="translate(-22.27 49.12) rotate(-33.73)"/><path class="cls-8" d="M61.25,65.47A9.49,9.49,0,0,1,77,54.93Z"/><path class="cls-9" d="M62,65a7.63,7.63,0,1,1,12.68-8.48Z"/><rect class="cls-8" x="90.67" y="59.58" width="7.38" height="3.43" transform="matrix(0.56, -0.83, 0.83, 0.56, -9.01, 105.75)"/><path class="cls-8" d="M103,65.47A9.49,9.49,0,0,0,87.21,54.93Z"/><path class="cls-9" d="M102.28,65A7.63,7.63,0,0,0,89.6,56.52Z"/><circle class="cls-8" cx="82.13" cy="81.13" r="22.92"/><circle class="cls-9" cx="82.13" cy="81.13" r="21.74"/><circle class="cls-8" cx="81.43" cy="80.9" r="18.68"/><circle class="cls-10" cx="82.13" cy="81.13" r="17.82"/><path class="cls-11" d="M66.22,82.4A17.82,17.82,0,0,1,92.95,67a17.82,17.82,0,1,0-19.73,29.6A17.79,17.79,0,0,1,66.22,82.4Z"/><circle class="cls-9" cx="82.13" cy="81.13" r="3.18"/><path class="cls-9" d="M89.71,68.42a.42.42,0,0,1-.21-.05.42.42,0,0,1-.16-.58l.49-.85a.43.43,0,1,1,.74.43l-.49.85a.43.43,0,0,1-.37.21Z"/><path class="cls-9" d="M74.06,95.54a.44.44,0,0,1-.21-.06.42.42,0,0,1-.16-.58l.49-.85a.42.42,0,1,1,.73.42l-.49.85a.43.43,0,0,1-.37.21Z"/><path class="cls-9" d="M96.11,89.62a.42.42,0,0,1-.21-.05l-.84-.49a.42.42,0,1,1,.42-.74l.85.49a.42.42,0,0,1-.21.79Z"/><path class="cls-9" d="M69,74a.42.42,0,0,1-.21-.05l-.85-.49a.42.42,0,1,1,.42-.74l.85.49a.42.42,0,0,1,.15.58A.42.42,0,0,1,69,74Z"/><path class="cls-9" d="M74.56,68.42a.43.43,0,0,1-.37-.21l-.49-.85a.42.42,0,0,1,.74-.42l.49.85a.43.43,0,0,1-.16.58.41.41,0,0,1-.21.05Z"/><path class="cls-9" d="M90.21,95.54a.43.43,0,0,1-.37-.21l-.5-.85a.43.43,0,0,1,.15-.58.42.42,0,0,1,.58.15l.5.85a.42.42,0,0,1-.15.58.41.41,0,0,1-.21.06Z"/><path class="cls-9" d="M68.16,89.62a.42.42,0,0,1-.21-.79l.85-.49a.42.42,0,0,1,.42.74l-.85.49a.42.42,0,0,1-.21.05Z"/><path class="cls-9" d="M95.27,74a.42.42,0,0,1-.21-.79l.85-.49a.42.42,0,1,1,.42.74l-.85.49a.4.4,0,0,1-.21.06Z"/><path class="cls-9" d="M67,81.55H66a.42.42,0,0,1,0-.85h1a.42.42,0,0,1,0,.85Z"/><path class="cls-9" d="M97.29,81.55a.42.42,0,0,1,0-.85h1a.42.42,0,0,1,0,.85h-1Z"/><path class="cls-9" d="M82.13,97.7h0a.43.43,0,0,1-.42-.43v-1a.43.43,0,0,1,.43-.42h0a.42.42,0,0,1,.42.43v1a.42.42,0,0,1-.42.42Z"/><path class="cls-9" d="M82.13,66.39a.42.42,0,0,1-.42-.42V65a.42.42,0,1,1,.85,0v1a.42.42,0,0,1-.42.42Z"/><path class="cls-9" d="M81.29,67.26V81.13a.85.85,0,1,0,1.7,0V67.26Z"/><path class="cls-9" d="M75.5,87.88l6.78-5.78a.85.85,0,1,0-1.1-1.29L74.4,86.59Z"/><circle class="cls-10" cx="82.13" cy="81.13" r="1.96"/><circle class="cls-12" cx="82.13" cy="81.13" r="0.97"/><path class="cls-12" d="M82.14,81.55a.42.42,0,0,1-.12-.83L93,77.4a.42.42,0,1,1,.24.81l-11,3.33-.12,0Z"/></g></g></svg>