<svg xmlns="http://www.w3.org/2000/svg" xmlns:xlink="http://www.w3.org/1999/xlink" viewBox="0 0 106 107.66"><defs><style>.cls-1{fill:none;}.cls-2{fill:#09c;}.cls-3{fill:#f7f8fc;}.cls-4{fill:#fff;}.cls-5{clip-path:url(#clip-path);}.cls-6{fill:#282d33;}.cls-7{fill:#f3b840;}.cls-8{fill:#f0ca67;}.cls-9{fill:#f4da80;}.cls-10{fill:#484f59;}.cls-11{fill:#30363d;}</style><clipPath id="clip-path"><path class="cls-1" d="M53,104.35c-29.22,0-53-23.41-53-52.17S23.78,0,53,0s53,23.41,53,52.17S82.22,104.35,53,104.35Z"/></clipPath></defs><title>Asset 7</title><g id="Layer_2" data-name="Layer 2"><g id="Layer_4" data-name="Layer 4"><path class="cls-2" d="M53,104.35c-29.22,0-53-23.41-53-52.17S23.78,0,53,0s53,23.41,53,52.17S82.22,104.35,53,104.35Z"/><path class="cls-2" d="M53,94C29.57,94,10.5,75.24,10.5,52.17S29.57,10.34,53,10.34,95.5,29.11,95.5,52.17,76.43,94,53,94Z"/><path class="cls-3" d="M53,87.61c-19.85,0-36-15.9-36-35.44S33.15,16.74,53,16.74s36,15.9,36,35.44S72.85,87.61,53,87.61Z"/><rect class="cls-4" x="50.51" y="7.69" width="2" height="9.27"/><rect class="cls-4" x="30.42" y="13.44" width="2" height="9.27" transform="translate(-4.83 18.13) rotate(-30)"/><rect class="cls-4" x="15.89" y="28.46" width="2" height="9.27" transform="translate(-20.22 31.18) rotate(-60)"/><rect class="cls-4" x="7.19" y="52.37" width="9.27" height="2"/><rect class="cls-4" x="12.95" y="72.46" width="9.27" height="2" transform="translate(-34.37 18.63) rotate(-29.99)"/><rect class="cls-4" x="86.49" y="67.63" width="2" height="9.28" transform="translate(-18.85 111.88) rotate(-59.99)"/><rect class="cls-4" x="87.92" y="51" width="9.27" height="2"/><rect class="cls-4" x="82.17" y="30.91" width="9.28" height="2" transform="translate(-4.33 47.67) rotate(-29.99)"/><rect class="cls-4" x="67.14" y="16.39" width="9.28" height="2" transform="translate(20.84 70.86) rotate(-60.01)"/><g class="cls-5"><path class="cls-6" d="M42.2,107.66h22a1.4,1.4,0,1,0,0-2.81h-22a1.4,1.4,0,1,0,0,2.81Z"/><path class="cls-7" d="M25.81,51.32a27.38,27.38,0,0,1,54.76,0c0,.89-.66,13.55-11,26.83-3,4-2.52,12.07-2.49,12.07H39.21s.58-8.06-2.43-12.07C26.45,64.86,25.81,52.22,25.81,51.32Z"/><path class="cls-8" d="M44.41,86.65c-.19-3.45-1-9.94-3.16-12.78C31.43,61.24,31,49.28,31,49.17a23.81,23.81,0,0,1,47.62,0c0,.1-.45,12.06-10.22,24.64-2.17,2.88-3,9.38-3.24,12.83Z"/><path class="cls-9" d="M74.76,53.46a2.14,2.14,0,0,1-2.14-2.14A19.44,19.44,0,0,0,53.19,31.9a2.14,2.14,0,1,1,0-4.28A23.73,23.73,0,0,1,76.9,51.32,2.14,2.14,0,0,1,74.76,53.46Z"/><polygon class="cls-10" points="46.18 92.34 42.63 64.12 44.06 63.69 47.61 91.91 46.18 92.34"/><polygon class="cls-10" points="60.12 92.34 63.68 64.12 62.25 63.69 58.69 91.91 60.12 92.34"/><path class="cls-10" d="M62.51,67.65c-1,0-1.41-1-1.72-1.66-.13-.29-.4-.9-.55-.9s-.42.61-.55.9c-.31.7-.74,1.66-1.72,1.66s-1.41-1-1.72-1.66c-.07-.16-.18-.41-.3-.61-.5.93-1.41,2.27-2.53,2.27S52,66.69,51.7,66c-.13-.29-.4-.9-.55-.9s-.42.61-.55.9c-.31.7-.74,1.66-1.72,1.66s-1.41-1-1.72-1.66c-.13-.29-.4-.9-.56-.9s-.42.61-.55.9c-.31.7-.74,1.66-1.72,1.66V66.37c.15,0,.42-.6.55-.9.31-.7.74-1.66,1.72-1.66s1.41,1,1.72,1.66c.13.29.4.9.56.9s.42-.6.55-.9c.31-.7.74-1.66,1.72-1.66s1.41,1,1.72,1.66c.13.29.4.9.55.9.38,0,1.18-1,1.69-2.18a.64.64,0,0,1,.58-.38c1,0,1.41,1,1.72,1.66.13.29.4.9.55.9s.42-.6.55-.9c.31-.7.74-1.66,1.72-1.66s1.41,1,1.72,1.66c.13.29.4.9.55.9Z"/><path class="cls-6" d="M67.13,90.37v14.31a1.78,1.78,0,0,1-1.77,1.78H41.06a1.78,1.78,0,0,1-1.78-1.78V90.37Z"/><path class="cls-6" d="M67.69,93.15h-29a1.4,1.4,0,1,1,0-2.81h29a1.4,1.4,0,0,1,0,2.81Z"/><path class="cls-10" d="M54.87,92.44H38.78a.78.78,0,1,1,0-1.56H54.87a.78.78,0,1,1,0,1.56Z"/><path class="cls-6" d="M67.69,97.83h-29a1.4,1.4,0,0,1,0-2.81h29a1.4,1.4,0,0,1,0,2.81Z"/><path class="cls-6" d="M67.69,102.51h-29a1.4,1.4,0,1,1,0-2.81h29a1.4,1.4,0,0,1,0,2.81Z"/><path class="cls-10" d="M54.87,96.9H38.78a.78.78,0,1,1,0-1.56H54.87a.78.78,0,1,1,0,1.56Z"/><path class="cls-10" d="M54.87,101.63H38.78a.78.78,0,1,1,0-1.56H54.87a.78.78,0,1,1,0,1.56Z"/><rect class="cls-11" x="43.07" y="93.16" width="13.75" height="1.43"/><rect class="cls-11" x="43.07" y="97.72" width="13.75" height="1.43"/><rect class="cls-11" x="43.07" y="102.27" width="13.75" height="1.43"/></g></g></g></svg>