<svg xmlns="http://www.w3.org/2000/svg" viewBox="0 0 116.38 104.35"><defs><style>.cls-1{fill:#09c;}.cls-2{fill:#f0ca67;}.cls-3{fill:#f4da80;}.cls-4{fill:#e5e8ec;}.cls-5{fill:#484f59;}.cls-6{fill:#cdd5d7;}.cls-7{fill:#30363d;}.cls-8{fill:#b7bec0;}.cls-9{fill:#f0bf41;}.cls-10{fill:#f7f8fc;}</style></defs><title>Asset 1</title><g id="Layer_2" data-name="Layer 2"><g id="Layer_4" data-name="Layer 4"><path class="cls-1" d="M63.38,104.35c-29.22,0-53-23.41-53-52.17S34.15,0,63.38,0s53,23.41,53,52.17S92.6,104.35,63.38,104.35Z"/><polygon class="cls-2" points="73.57 68.5 63.06 68.5 56.84 74.72 54.94 74.72 54.94 84.03 60.82 84.04 62.23 82.63 62.23 82.62 73.57 71.29 73.57 68.5"/><polygon class="cls-2" points="79.58 63.37 69.09 62.83 62.56 68.71 60.66 68.61 60.18 77.91 66.04 78.22 67.53 76.89 67.53 76.88 79.44 66.16 79.58 63.37"/><path class="cls-3" d="M95.95,54.51,94.34,52.9c-2.67-2.67-7.15-2-10.27.23L70.72,60.81H35.39l.09-.38L35.9,60l13.95-.21a6.48,6.48,0,0,0,6.29-6.66l-.06-2.16c0-.09,0-.18,0-.27l-24.89.87-9.62,10.2h-11V83.16h17A7.93,7.93,0,0,0,32,84.52H59.48l.72-14.38,13.49,0,1.41-1.41h0l21-14Z"/><rect class="cls-4" x="3.59" y="59.65" width="18.3" height="35.91"/><rect class="cls-5" y="58.29" width="18.47" height="38.62"/><rect class="cls-5" x="15.59" y="58.29" width="2.88" height="38.62"/><rect class="cls-6" x="18.47" y="77.63" width="3.41" height="17.94"/><rect class="cls-7" y="77.63" width="15.59" height="19.29"/><polygon class="cls-5" points="18.47 77.63 15.59 77.63 15.59 96.92 18.47 96.92 18.47 95.56 18.47 77.63"/><circle class="cls-8" cx="9.95" cy="90.93" r="1.84"/><circle class="cls-3" cx="64.98" cy="36.61" r="12.96"/><circle class="cls-9" cx="64.98" cy="36.61" r="12.57"/><circle class="cls-3" cx="64.98" cy="36.61" r="9.9"/><path class="cls-9" d="M64.28,42.42a5.12,5.12,0,0,1-1.79-.49,4.86,4.86,0,0,1-1.4-1l.43-.67a.46.46,0,0,1,.17-.15.46.46,0,0,1,.22-.06.58.58,0,0,1,.35.16l.48.35a4.42,4.42,0,0,0,.68.39,2.92,2.92,0,0,0,.95.25l.3-4.33c-.38-.12-.75-.24-1.12-.39a4,4,0,0,1-1-.56,2.64,2.64,0,0,1-.7-.88,3,3,0,0,1-.27-1.32,3.09,3.09,0,0,1,.23-1.17,3,3,0,0,1,.68-1,3.43,3.43,0,0,1,1.1-.72,3.76,3.76,0,0,1,1.5-.28l.08-1.19a.53.53,0,0,1,.12-.28.37.37,0,0,1,.29-.12h.54L66,30.57A4.11,4.11,0,0,1,67.5,31a5,5,0,0,1,1.11.81l-.35.54a.46.46,0,0,1-.37.24.6.6,0,0,1-.28-.1l-.4-.24a6.06,6.06,0,0,0-.55-.27,2.66,2.66,0,0,0-.71-.19l-.27,3.94c.39.12.78.25,1.16.39a4,4,0,0,1,1,.55,2.46,2.46,0,0,1,.74.83,2.5,2.5,0,0,1,.29,1.26,3.86,3.86,0,0,1-.25,1.38,3.36,3.36,0,0,1-.71,1.14,3.62,3.62,0,0,1-1.15.8,3.69,3.69,0,0,1-1.55.31l-.1,1.46a.48.48,0,0,1-.13.27.36.36,0,0,1-.28.12h-.54ZM63,33.59a1.51,1.51,0,0,0,.52,1.19,2.59,2.59,0,0,0,.57.39,7.26,7.26,0,0,0,.71.29L65,31.78a3.25,3.25,0,0,0-.92.21,2,2,0,0,0-.64.41,1.55,1.55,0,0,0-.37.55A1.65,1.65,0,0,0,63,33.59ZM67.5,39a1.52,1.52,0,0,0-.16-.7,1.56,1.56,0,0,0-.41-.5,2.5,2.5,0,0,0-.61-.37,6.75,6.75,0,0,0-.75-.29l-.28,4.06a2.82,2.82,0,0,0,.94-.23,2.15,2.15,0,0,0,.69-.47,1.9,1.9,0,0,0,.43-.66A2.41,2.41,0,0,0,67.5,39Z"/><rect class="cls-10" x="55.23" y="10.29" width="1" height="12.67"/><rect class="cls-10" x="74.9" y="10.29" width="1" height="12.67"/><rect class="cls-10" x="65.23" y="3.96" width="1" height="12.67"/><circle class="cls-3" cx="58.53" cy="80.46" r="4.17"/><circle class="cls-3" cx="58.53" cy="72.92" r="4.17"/></g></g></svg>