<svg xmlns="http://www.w3.org/2000/svg" viewBox="0 0 106 108.03"><defs><style>.cls-1{fill:#09c;}.cls-2{fill:#cdd5d7;}.cls-3{fill:#e5e8ec;}.cls-4{fill:#30363d;}.cls-5{fill:#484f59;}.cls-6{fill:#ff876c;}.cls-7{fill:#ffa38f;}.cls-8{fill:#e36e54;}.cls-9{fill:#596273;}.cls-10{fill:#f0ca67;}.cls-11{fill:#f4da80;}</style></defs><title>Asset 1</title><g id="Layer_2" data-name="Layer 2"><g id="Layer_4" data-name="Layer 4"><path class="cls-1" d="M53,104.35c-29.22,0-53-23.41-53-52.17S23.78,0,53,0s53,23.41,53,52.17S82.22,104.35,53,104.35Z"/><circle class="cls-2" cx="36.82" cy="94.83" r="9.03"/><path class="cls-2" d="M82.69,104.67a10.43,10.43,0,1,0-18.76,0Z"/><polygon class="cls-3" points="52.19 35.62 56.78 56.88 61.38 96.27 52.19 96.27 43.01 96.27 47.6 56.88 52.19 35.62"/><polygon class="cls-2" points="52.19 35.62 55.39 56.88 58.59 96.27 52.19 96.27 45.79 96.27 48.99 56.88 52.19 35.62"/><polygon class="cls-3" points="52.19 35.62 53.14 56.88 54.09 96.27 52.19 96.27 50.3 96.27 51.24 56.88 52.19 35.62"/><path class="cls-3" d="M74.69,96.42a9,9,0,0,0-12.88-9.19,11.3,11.3,0,0,0-22,1.34,12.08,12.08,0,0,0-7.23,4.2,6.1,6.1,0,1,0-2,11.89H74.21v0c.12,0,.22,0,.34,0a4.13,4.13,0,0,0,.13-8.25Z"/><path class="cls-2" d="M67.23,99.5a7.37,7.37,0,0,0-3.93,1.13,11.3,11.3,0,0,0-21.91-3.8A11.27,11.27,0,0,0,27,103.4a6.07,6.07,0,0,0,3.59,1.27H74.21v0h.08A7.43,7.43,0,0,0,67.23,99.5Z"/><circle class="cls-3" cx="37.42" cy="104.5" r="3.53"/><path class="cls-3" d="M50.47,108a7,7,0,1,0-13.12,0Z"/><circle class="cls-3" cx="50.55" cy="103.9" r="4.13"/><path class="cls-4" d="M52.27,46.08c-2.24,0-4.06,3-4.06,6.74a11.46,11.46,0,0,0,.08,1.38h7.95a11.06,11.06,0,0,0,.09-1.38C56.33,49.1,54.52,46.08,52.27,46.08Z"/><path class="cls-5" d="M51.22,46.08c-1.66,0-3,3-3,6.74,0,.47,0,.93.06,1.38h5.88c0-.44.06-.91.06-1.38C54.22,49.1,52.87,46.08,51.22,46.08Z"/><path class="cls-5" d="M48.44,29.93A19.31,19.31,0,0,1,39.33,46.6l-.48.44c-1,.92-.67,5.24-.67,5.24H48.49v-25a14.21,14.21,0,0,1-.09,1.44C48.42,29.1,48.44,29.51,48.44,29.93Z"/><path class="cls-2" d="M48.49,38.31a19.19,19.19,0,0,1-8.7,9.81l-.53.44c-.67.56-.8,2.38-.8,3.72h10Z"/><path class="cls-3" d="M39.37,51.78a1.44,1.44,0,0,0-.4.51h9.53V44A20.83,20.83,0,0,1,40,51.33Z"/><path class="cls-5" d="M56.11,29.93A19.31,19.31,0,0,0,65.22,46.6l.48.44c1,.92.68,5.24.68,5.24H56.05v-25a13.74,13.74,0,0,0,.09,1.44C56.12,29.1,56.11,29.51,56.11,29.93Z"/><path class="cls-2" d="M56.05,38.31a19.21,19.21,0,0,0,8.71,9.81l.53.44c.67.56.8,2.38.8,3.72h-10Z"/><path class="cls-3" d="M65.17,51.78a1.42,1.42,0,0,1,.4.51H56.05V44a20.86,20.86,0,0,0,8.53,7.33Z"/><path class="cls-3" d="M56.32,52.28V26.41c0-2.37-1.76-10.05-4-11.32-2.28,1.26-4,9-4,11.32V52.28Z"/><path class="cls-2" d="M52.27,15.09l-.07,0V52.28h4.11V26.41C56.32,24,54.56,16.35,52.27,15.09Z"/><path class="cls-5" d="M49.38,20.37h5.78c-.73-2.39-1.74-4.65-2.89-5.28C51.13,15.72,50.11,18,49.38,20.37Z"/><path class="cls-4" d="M52.2,20.37h3c-.73-2.39-1.74-4.65-2.89-5.28l-.07,0Z"/><path class="cls-5" d="M54.76,24.66c-.17.38-.72.24-1.36,0a3.15,3.15,0,0,0-2.3,0c-.65.24-1.19.38-1.36,0h0c-.17-.37.23-1.26,1.07-1.59a4,4,0,0,1,2.88,0c.84.32,1.24,1.22,1.07,1.59Z"/><path class="cls-5" d="M44,46.08c-1,0-1.78,3-1.78,6.74,0,.47,0,.93,0,1.38h3.48c0-.44,0-.91,0-1.38C45.8,49.1,45,46.08,44,46.08Z"/><path class="cls-4" d="M44,46.08c-.25,0-.5.21-.72.58.81.44,1.43,3.07,1.43,6.25,0,.44,0,.87,0,1.29h1.06c0-.44,0-.91,0-1.38C45.8,49.1,45,46.08,44,46.08Z"/><path class="cls-5" d="M60.52,46.08c-1,0-1.78,3-1.78,6.74,0,.47,0,.93,0,1.38h3.48c0-.44,0-.91,0-1.38C62.29,49.1,61.5,46.08,60.52,46.08Z"/><path class="cls-4" d="M60.52,46.08c-.25,0-.5.21-.72.58.81.44,1.43,3.07,1.43,6.25,0,.44,0,.87,0,1.29h1.07c0-.44,0-.91,0-1.38C62.29,49.1,61.5,46.08,60.52,46.08Z"/><path class="cls-6" d="M56.38,54.65V52.32H48.16v2.33c0,.25.4.44.91.44h6.41C56,55.1,56.38,54.9,56.38,54.65Z"/><path class="cls-7" d="M55.26,54.61V52.32H51.77v2.29c0,.12.21.21.44.21h2.6C55.06,54.83,55.26,54.73,55.26,54.61Z"/><path class="cls-8" d="M50.09,52.32H48.16v2.33c0,.25.4.44.91.44h1Z"/><path class="cls-4" d="M56.48,44.44V21.53c-1,.08-1.8.46-1.92.94v22Z"/><path class="cls-9" d="M50,44.44h4.57v-22h0c-.14-.53-1.1-.95-2.28-1s-2.13.42-2.27,1h0Z"/><path class="cls-4" d="M50,22.46c-.13-.48-.91-.86-1.92-.94V44.44H50Z"/><path class="cls-3" d="M48.06,21.53c1,.07,1.8.46,1.93.94h0c.14-.53,1.1-1,2.27-1s2.14.42,2.28,1h0c.13-.48.92-.86,1.93-.94l-4.22-8.68Z"/><path class="cls-2" d="M48.06,21.53c1,.07,1.8.46,1.93.94h0c.14-.53,2.27-9.62,2.27-9.62Z"/><rect class="cls-10" x="48.11" y="44.44" width="8.33" height="7.97"/><rect class="cls-11" x="51.97" y="44.44" width="1.7" height="7.97"/><path class="cls-4" d="M51,15.46c.4,0,.79,0,1.2,0s.9,0,1.34-.06l-1.27-2.6Z"/><rect class="cls-11" x="55.69" y="45.27" width="0.53" height="1.14"/><rect class="cls-11" x="54.46" y="45.27" width="0.54" height="1.14"/><rect class="cls-10" x="53.24" y="45.27" width="0.54" height="1.14"/><rect class="cls-10" x="52.01" y="45.27" width="0.54" height="1.14"/><rect class="cls-11" x="50.79" y="45.27" width="0.53" height="1.14"/><rect class="cls-11" x="49.56" y="45.27" width="0.53" height="1.14"/><rect class="cls-11" x="48.34" y="45.27" width="0.53" height="1.14"/><rect class="cls-11" x="55.69" y="50.15" width="0.53" height="1.15"/><rect class="cls-11" x="54.46" y="50.15" width="0.54" height="1.15"/><rect class="cls-10" x="53.24" y="50.15" width="0.54" height="1.15"/><rect class="cls-10" x="52.01" y="50.15" width="0.54" height="1.15"/><rect class="cls-11" x="50.79" y="50.15" width="0.53" height="1.15"/><rect class="cls-11" x="49.56" y="50.15" width="0.53" height="1.15"/><rect class="cls-11" x="48.34" y="50.15" width="0.53" height="1.15"/></g></g></svg>