<?xml version="1.0" encoding="utf-8"?>
<!-- Generated by IcoMoon.io -->
<!DOCTYPE svg PUBLIC "-//W3C//DTD SVG 1.1//EN" "http://www.w3.org/Graphics/SVG/1.1/DTD/svg11.dtd">
<svg version="1.1" xmlns="http://www.w3.org/2000/svg" xmlns:xlink="http://www.w3.org/1999/xlink" width="16" height="16" viewBox="0 0 16 16">
<path fill="#FFF" d="M8 1.602c-3.534 0-6.397 2.864-6.397 6.397s2.864 6.398 6.397 6.398 6.398-2.864 6.398-6.398c0-3.534-2.864-6.397-6.398-6.397zM8 2.136c3.234 0 5.864 2.631 5.864 5.864 0 1.423-0.51 2.728-1.356 3.745-0.585-0.244-1.965-0.723-2.819-0.975-0.073-0.023-0.084-0.027-0.084-0.33 0-0.25 0.103-0.503 0.204-0.716 0.109-0.232 0.238-0.622 0.284-0.972 0.13-0.15 0.306-0.447 0.42-1.013 0.099-0.499 0.053-0.68-0.013-0.85-0.007-0.018-0.014-0.036-0.019-0.053-0.025-0.117 0.009-0.724 0.095-1.195 0.059-0.323-0.015-1.011-0.46-1.58-0.281-0.36-0.819-0.801-1.801-0.862l-0.539 0.001c-0.966 0.061-1.504 0.502-1.785 0.862-0.445 0.569-0.519 1.256-0.46 1.579 0.086 0.471 0.12 1.079 0.095 1.193-0.005 0.020-0.013 0.038-0.020 0.056-0.066 0.17-0.112 0.352-0.013 0.85 0.113 0.566 0.289 0.862 0.42 1.013 0.046 0.35 0.175 0.74 0.284 0.972 0.080 0.17 0.117 0.401 0.117 0.727 0 0.303-0.011 0.307-0.080 0.329-0.883 0.261-2.29 0.769-2.814 0.999-0.863-1.021-1.384-2.339-1.384-3.778 0-3.234 2.631-5.864 5.864-5.864zM3.906 12.193c0.6-0.245 1.797-0.672 2.583-0.904 0.457-0.144 0.457-0.529 0.457-0.838 0-0.256-0.018-0.634-0.168-0.954-0.103-0.219-0.221-0.594-0.247-0.888-0.006-0.069-0.038-0.132-0.090-0.178-0.075-0.066-0.229-0.308-0.327-0.797-0.078-0.387-0.045-0.471-0.013-0.553 0.014-0.035 0.027-0.069 0.037-0.108 0.064-0.234-0.007-1.003-0.085-1.429-0.034-0.185 0.009-0.712 0.356-1.156 0.311-0.397 0.781-0.619 1.382-0.657l0.506-0.001c0.616 0.039 1.087 0.26 1.398 0.658 0.347 0.444 0.389 0.97 0.355 1.156-0.077 0.426-0.149 1.195-0.085 1.429 0.011 0.039 0.023 0.073 0.037 0.108 0.032 0.082 0.065 0.166-0.012 0.553-0.098 0.488-0.252 0.73-0.327 0.797-0.052 0.045-0.084 0.109-0.090 0.178-0.025 0.294-0.143 0.669-0.246 0.888-0.118 0.251-0.254 0.586-0.254 0.943 0 0.309 0 0.694 0.462 0.84 0.752 0.222 1.955 0.635 2.59 0.885-1.060 1.050-2.518 1.7-4.124 1.7-1.592 0-3.036-0.638-4.094-1.671z"></path>
</svg>
